<?xml version="1.0" encoding="iso-8859-1"?>
<!-- Generator: Adobe Illustrator 19.0.0, SVG Export Plug-In . SVG Version: 6.00 Build 0)  -->
<svg version="1.1" id="Layer_1" xmlns="http://www.w3.org/2000/svg" xmlns:xlink="http://www.w3.org/1999/xlink" x="0px" y="0px"
	 viewBox="0 0 512 512" style="enable-background:new 0 0 512 512;" xml:space="preserve">
<path style="fill:#5D9BEB;" d="M512,256.006C512,397.402,397.394,512.004,256.004,512C114.606,512.004,0,397.402,0,256.006
	C-0.007,114.61,114.606,0,256.004,0C397.394,0,512,114.614,512,256.006z"/>
<path style="fill:#4988DB;" d="M511.466,272.353c-0.142-2.204-0.3-4.402-0.489-6.592c-0.434-0.581-89.277-89.473-89.936-89.936
	c-1.253-1.785-3.226-3.025-5.574-3.025h-4.365c-0.455-0.636-31.001-31.178-31.66-31.641c-1.254-1.786-3.226-3.026-5.575-3.026
	H232.16l-19.987-18.905c-1.294-1.219-2.993-1.895-4.767-1.895H96.533c-3.833,0-6.933,3.101-6.933,6.933v230.507
	c0,11.522,4.901,21.699,12.789,28.916c0.393,0.404,80.787,80.819,126.905,126.929c8.78,0.91,17.69,1.382,26.709,1.381
	C391.902,512.003,503.035,406.127,511.466,272.353z"/>
<g>
	<path style="fill:#F4F6F9;" d="M415.467,172.8H380.8v-27.733c0-3.833-3.101-6.933-6.933-6.933H232.16l-19.987-18.905
		c-1.293-1.219-2.993-1.895-4.767-1.895H96.533c-3.833,0-6.933,3.101-6.933,6.933v230.507c0,22.371,18.274,39.893,41.6,39.893
		h241.178c26.65,0,50.022-23.555,50.022-50.416V179.733C422.4,175.901,419.299,172.8,415.467,172.8z M158.933,179.733v175.04
		c0,15.323-11.402,26.027-27.733,26.027c-15.81,0-27.733-11.193-27.733-26.027V131.2H204.65l19.987,18.905
		c1.293,1.219,2.993,1.895,4.767,1.895h137.53v20.8H165.867C162.034,172.8,158.933,175.901,158.933,179.733z M408.533,344.251
		c0,19.127-17.232,36.549-36.156,36.549H163.49c5.898-6.838,9.31-15.817,9.31-26.027V186.667h235.733V344.251z"/>
	<path style="fill:#F4F6F9;" d="M221.238,353.067h138.667c2.255,0,4.367-1.097,5.667-2.939c1.3-1.842,1.618-4.205,0.86-6.324
		l-34.667-97.081c-0.88-2.478-3.088-4.239-5.687-4.557c-2.674-0.332-5.173,0.867-6.622,3.06l-37.348,56.395l-21.795-17.942
		c-1.551-1.286-3.588-1.801-5.566-1.489c-1.984,0.338-3.724,1.523-4.767,3.244l-34.667,57.105c-1.3,2.14-1.347,4.814-0.115,6.994
		C216.425,351.719,218.734,353.067,221.238,353.067z M257.679,299.469l21.552,17.746c1.517,1.246,3.493,1.788,5.43,1.51
		c1.943-0.291,3.677-1.395,4.759-3.034l33.949-51.255l26.698,74.764H233.562L257.679,299.469z"/>
	<path style="fill:#F4F6F9;" d="M252.58,262.947c13.379,0,24.267-10.887,24.267-24.267c0-13.379-10.887-24.267-24.267-24.267
		s-24.267,10.887-24.267,24.267C228.314,252.06,239.201,262.947,252.58,262.947z M252.58,228.281c5.734,0,10.4,4.666,10.4,10.4
		s-4.666,10.4-10.4,10.4c-5.734,0-10.4-4.666-10.4-10.4S246.846,228.281,252.58,228.281z"/>
</g>
<g>
</g>
<g>
</g>
<g>
</g>
<g>
</g>
<g>
</g>
<g>
</g>
<g>
</g>
<g>
</g>
<g>
</g>
<g>
</g>
<g>
</g>
<g>
</g>
<g>
</g>
<g>
</g>
<g>
</g>
</svg>
